<?xml version="1.0" encoding="utf-8"?>
<!-- Generator: Adobe Illustrator 26.0.2, SVG Export Plug-In . SVG Version: 6.00 Build 0)  -->
<svg version="1.1" id="Capa_1" xmlns="http://www.w3.org/2000/svg" xmlns:xlink="http://www.w3.org/1999/xlink" x="0px" y="0px"
	 viewBox="0 0 289.5 211.6" style="enable-background:new 0 0 289.5 211.6;" xml:space="preserve">
<style type="text/css">
	.st0{fill:#E74645;stroke:#070708;stroke-width:7.92;stroke-linejoin:round;}
	.st1{fill:#E74645;stroke:#070708;stroke-width:10.33;stroke-miterlimit:10;}
	.st2{fill:#EC6162;}
	.st3{fill:#E27E71;}
	.st4{fill:#96302B;}
	.st5{fill:#936037;}
	.st6{fill:#070708;}
	.st7{fill:none;stroke:#070708;stroke-width:7.25;stroke-linecap:round;stroke-miterlimit:10;}
</style>
<path class="st0" d="M263.3,46.7H245c-12.3,0-22.2,10-22.2,22.2l0,0V91c0,12.3,10,22.2,22.2,22.2l0,0h18.3c12.3,0,22.2-10,22.2-22.2
	l0,0V69C285.6,56.7,275.6,46.7,263.3,46.7C263.4,46.7,263.4,46.7,263.3,46.7z M271.9,86.2c0,6.9-5.6,12.5-12.5,12.6l0,0H249
	c-6.9,0-12.6-5.6-12.6-12.5l0,0V73.9c0-6.9,5.6-12.5,12.5-12.6l0,0h10.4c6.9,0,12.5,5.6,12.5,12.5l0,0L271.9,86.2z"/>
<path class="st1" d="M241.1,35.5c-1-14-52.7-25.4-117.6-25.4S5.8,21.5,5.8,35.5c0,0-16.8,171.8,117.6,170.9
	C123.4,206.4,254.2,216.1,241.1,35.5z"/>
<path class="st2" d="M226.3,44.7c-0.9-12.2-46-22.2-102.8-22.2S20.7,32.4,20.7,44.7c0,0-14.7,150.2,102.8,149.4
	C123.5,194,237.7,202.6,226.3,44.7z"/>
<path class="st3" d="M233.3,35.5c0,14-49.1,25.4-109.8,25.4S13.7,49.6,13.7,35.5s49.2-25.4,109.7-25.4S233.3,21.5,233.3,35.5z"/>
<path class="st4" d="M220.7,33.4c0,8.9-43.5,16.1-97.3,16.1s-97.3-7.2-97.3-16.1s43.5-16,97.3-16S220.7,24.5,220.7,33.4z"/>
<path class="st5" d="M32.7,39.1c14,6,49.4,10.3,90.8,10.3s76.7-4.3,90.8-10.3c-14-6-49.4-10.3-90.8-10.3S46.8,33.1,32.7,39.1z"/>
<path class="st6" d="M31.5,49.4c0,0,0.7,0.2,2,0.4s3.2,0.6,5.6,1.1s5.3,1,8.7,1.5s7.2,1,11.3,1.6c2.1,0.3,4.2,0.5,6.5,0.8
	c2.3,0.3,4.6,0.6,6.9,0.8c4.8,0.4,9.8,0.9,15,1.2c2.6,0.2,5.3,0.4,8,0.5s5.4,0.2,8.1,0.3l4.1,0.2l4.2,0.1l8.4,0.1c1.4,0,2.8,0,4.2,0
	l4.2-0.1l8.3-0.1l16.1-0.7l15.1-1.1l3.5-0.3l3.4-0.4l6.5-0.7l6-0.6l2.8-0.3l2.6-0.4l8.8-1.2c2.4-0.3,4.4-0.5,5.7-0.7l2-0.2l-2,0.5
	c-1.3,0.3-3.1,0.8-5.5,1.4s-5.3,1.3-8.6,2s-7.2,1.4-11.3,2.1l-6.5,1.1l-3.4,0.6l-3.6,0.4c-4.8,0.6-9.9,1.3-15.1,1.7l-8,0.6
	c-2.7,0.2-5.5,0.4-8.2,0.5l-8.4,0.2l-4.2,0.1c-1.4,0-2.8,0.1-4.2,0l-8.4-0.2l-4.2-0.1l-4.2-0.2c-2.8-0.1-5.5-0.3-8.2-0.5
	s-5.4-0.5-8-0.7l-3.9-0.4l-1.9-0.2l-1.9-0.3l-7.4-1c-2.4-0.3-4.7-0.8-7-1.1S61,57,58.9,56.5L53,55.3c-1.9-0.4-3.7-0.9-5.3-1.3
	c-3.3-0.8-6.2-1.7-8.6-2.3C34.2,50.4,31.5,49.4,31.5,49.4z"/>
<path class="st3" d="M83.8,122.7c0,5.4-7.8,9.7-17.5,9.7s-17.5-4.3-17.5-9.7s7.8-9.7,17.5-9.7S83.8,117.3,83.8,122.7z"/>
<path class="st3" d="M198.4,122.7c0,5.4-7.8,9.7-17.5,9.7s-17.5-4.3-17.5-9.7s7.8-9.7,17.5-9.7S198.4,117.3,198.4,122.7z"/>
<path class="st6" d="M130.4,133.6c0,3.8-3,6.8-6.8,6.8s-6.8-3-6.8-6.8c0-3.7,3-6.8,6.8-6.8C127.4,126.8,130.4,129.9,130.4,133.6
	L130.4,133.6z"/>
<path class="st7" d="M184.7,86.1c0.2,8.9-6.8,16.4-15.8,16.6c-8.9,0.2-16.4-6.8-16.6-15.8c0-0.3,0-0.5,0-0.8"/>
<path class="st7" d="M94.9,86.1c0.3,8.9-6.7,16.4-15.6,16.8c-8.9,0.3-16.4-6.7-16.8-15.6c0-0.4,0-0.8,0-1.1"/>
</svg>
