<svg xmlns="http://www.w3.org/2000/svg" viewBox="0 0 275.93 390.19"><defs><style>.cls-1{isolation:isolate;}.cls-2{fill:#f0ba76;}.cls-3{fill:#d6a35f;}.cls-17,.cls-4,.cls-8{fill:#fff;}.cls-15,.cls-5{fill:#ffee9c;}.cls-6{fill:#fff9f3;}.cls-10,.cls-12,.cls-14,.cls-7{fill:#c9a265;}.cls-12,.cls-15,.cls-7,.cls-9{mix-blend-mode:multiply;}.cls-17,.cls-7,.cls-9{opacity:0.4;}.cls-8{mix-blend-mode:soft-light;opacity:0.7;}.cls-10{fill-rule:evenodd;}.cls-11{fill:#3a3a3a;}.cls-12{opacity:0.3;}.cls-13{fill:#edcda4;}.cls-16{fill:#c6c6c6;}</style></defs><g class="cls-1"><g id="Sloth"><path class="cls-2" d="M96,388.31c0,3.93,41,7.12,91.49,7.12S279,392.24,279,388.31s-41-7.14-91.49-7.14S96,384.37,96,388.31Z" transform="translate(-9.59 -5.24)"/><path class="cls-3" d="M61.6,202.3c11.49-4.9,24.06,1.2,24.06,1.2a6,6,0,0,1,1.8,5,13,13,0,0,0-3,.64c-.09-.11-.2-.21-.31-.32s-13.39-4-24.37,1.46c-1.47-3.6,1-7.54,1-7.54C61,202.56,61.3,202.43,61.6,202.3Z" transform="translate(-9.59 -5.24)"/><path class="cls-3" d="M84.43,209.11a6.22,6.22,0,0,1,1.39,4.64,34.62,34.62,0,0,0-9.85.43h0a91.89,91.89,0,0,0-15.33,4.17c-.51.19-.92.33-1.17.45l-.41-.14-.12,0c-2-3.76.59-8.24.59-8.24s.16-.09.25-.12c11-5.46,24.37-1.46,24.37-1.46S84.34,209,84.43,209.11Z" transform="translate(-9.59 -5.24)"/><path class="cls-4" d="M59.44,218.8c.25-.12.66-.26,1.17-.45a91.89,91.89,0,0,1,15.33-4.17,24.32,24.32,0,0,1-6.83,8.6A14.42,14.42,0,0,1,60.37,226c-.16,0-.38,0-.61,0-1.57-.22-4.12-1-3.37-.69a8.85,8.85,0,0,1-1.34-.66c.44-2.24,1-5,1.46-8l.31,0a4.49,4.49,0,0,0,2.09,1.94l.18.32Z" transform="translate(-9.59 -5.24)"/><path class="cls-4" d="M77.14,194.21l-.17.85a25.62,25.62,0,0,0-8.78-.14l0-.33a3.89,3.89,0,0,0-1.36-.24c-2.26,0-5.34,1.88-7.75,5.43v-5.57c.07-1.52.12-3,.16-4.54a13.89,13.89,0,0,1,7.59-2.45,11,11,0,0,1,3.87.7A11.92,11.92,0,0,1,77.14,194.21Z" transform="translate(-9.59 -5.24)"/><path class="cls-5" d="M207.79,378.32l0-.5c11.7-.72,12.12,12.14,12.12,12.14v.73a182.67,182.67,0,0,1-20.45-1l-4.76-1.19A15.8,15.8,0,0,1,207.79,378.32Z" transform="translate(-9.59 -5.24)"/><path class="cls-5" d="M134.12,377.13l0-.49c11.7-.72,12.13,12.14,12.13,12.14v.72a183.07,183.07,0,0,1-20.48-1L121,387.31A15.78,15.78,0,0,1,134.12,377.13Z" transform="translate(-9.59 -5.24)"/><path class="cls-3" d="M184.76,333.18c-3.23,8.1-9,24.92-4.92,44.43a12.51,12.51,0,0,1,2,7.91s-14.08,3.87-35.59,4v-.72s-.43-12.86-12.13-12.14a19.9,19.9,0,0,0-3.18.47c.51-.33,11.21-7.19,24.36-3.06-19.38-24.45-27.16-51.68-29-79.92,13.74,6.32,61.88,25.82,109.59,14l.34-.1c2.82,8.87,6.32,17.46,10.57,24.46a25.32,25.32,0,0,0,10.31,5.07l-.19.86c-3.17,9.38-6.8,23.9-3.37,40.41a12.44,12.44,0,0,1,2,7.91s-14.07,3.87-35.59,4V390s-.42-12.86-12.12-12.14a20.92,20.92,0,0,0-3.18.47,30.61,30.61,0,0,1,22.65-3.54c-18.57-16.65-22.05-43.48-22.05-43.48A51.6,51.6,0,0,1,184.76,333.18Z" transform="translate(-9.59 -5.24)"/><path class="cls-5" d="M284.48,308.63c0,14.49-8,22.64-8,22.64S272.3,321,265,320.89l0-.32c4.09-3.56,6.46-6.55,9.56-9.74C276.08,309.22,284.48,308.63,284.48,308.63Z" transform="translate(-9.59 -5.24)"/><path class="cls-3" d="M262.67,321.19l.62-.15a8.68,8.68,0,0,1,1.66-.15c7.35.1,11.52,10.38,11.52,10.38L269.34,336a18.22,18.22,0,0,1-12.27,1.5,25.32,25.32,0,0,1-10.31-5.07c-4.25-7-7.75-15.59-10.57-24.46-8.18-25.72-10.81-54-10.81-54-.66-18.57,2.37-41.57,5.19-58.27-9.78-41.92,21.11-73,21.11-73s2.66-2.23,6.24,1.33l0,.1c.23.13.46.27.7.43a14.44,14.44,0,0,1,4.82,5.83s26.14,51.09,20.2,116.44a434.41,434.41,0,0,0-20.2,60.59S260.47,312.64,262.67,321.19Z" transform="translate(-9.59 -5.24)"/><path class="cls-3" d="M109.65,222.31a145.84,145.84,0,0,0,27.16-47.89c0,9.09-1.06,20.36-5.17,30.26,0,0-5.68,13.74-2,24.38v0s2.39,2.73,2.38,2.77l-2.46,1.57c-1.89,7.38-5.53,18.37-7,34.3-33.25-3.27-55.76-31.6-62.79-41.48l0-.26c.23,0,.45,0,.61,0a14.42,14.42,0,0,0,8.74-3.24,24.32,24.32,0,0,0,6.83-8.6h0C84.35,218.25,98.07,221.69,109.65,222.31Z" transform="translate(-9.59 -5.24)"/><path class="cls-3" d="M196.87,21.92c33.29,16,40.67,62.83,57.15,94.56l-.11.06s-5.51-1.2-12,6.25c-30.73,35-26.89,80.26-72.27,79-33.34-.95-27.44-25.89-33-51.36h0a84.09,84.09,0,0,0-4.13-18.13c-9.33-26.17-27.12-50.51-8.86-88.78,6.09-12.77,16.79-20.87,29.13-24.69a.24.24,0,0,0,.09,0,101.37,101.37,0,0,1,15-2.05c2.51-.22,5.64.08,8.48-.24a10.58,10.58,0,0,0,4.26-1.3c3.31-2-.23-9.85,5.57-8.81,3.6.63,4.89,7,3.11,9.69,2.6-1.45,9.36-.66,9,3.45A2.62,2.62,0,0,1,196.87,21.92Z" transform="translate(-9.59 -5.24)"/><path class="cls-6" d="M254,116.48l-.11.06s-5.51-1.2-12,6.25c-30.73,35-26.89,80.26-72.27,79-33.34-.95-27.44-25.89-33-51.36h0c0-.14-.06-.27-.09-.4s-1.07,2.21-1.07,7a109.08,109.08,0,0,1,1.34,17.4c0,9.09-1.06,20.36-5.17,30.26,0,0-5.68,13.74-2,24.38v0s1.46,2.49,1.48,2.55l.45,1.12h-1.12c-1.89,7.38-6.42,19-7.93,35a145.85,145.85,0,0,0-.7,15.53c-4,4.39-2.28,8.78.56,9,0,0,1.37.71,3.89,1.86,13.74,6.32,61.88,25.82,109.59,14l.34-.1c-8.18-25.72-10.81-54-10.81-54-.66-18.57,2.37-41.57,5.19-58.27-9.78-41.92,21.11-73,21.11-73s2.66-2.23,6.24,1.33l0,.1c.23.13.46.27.7.43l.07-.11C257,122,255.48,119.3,254,116.48Z" transform="translate(-9.59 -5.24)"/><path class="cls-7" d="M251.68,122.79s-26.87,8.48-29.67,69.45l2,5.61s-4.82,39.71-33.69,40.92c0,0,9.82,5.91,20.21,2.8,0,0-3.56,42.78,7.28,69.66l18-3.13s-13-34.83-10.25-70.13l5-42.2L234,177.4S234,146.4,251.68,122.79Z" transform="translate(-9.59 -5.24)"/><path class="cls-7" d="M162.32,327.52s-3.46,26.76,4.11,52.3c0,0-16.72-5.2-34.38,7.93,0,0,32.07,3.74,49.77-2.23,0,0,.41-6.69-2-7.91,0,0-5.74-24,4.92-44.43C184.76,333.18,169.57,330.68,162.32,327.52Z" transform="translate(-9.59 -5.24)"/><path class="cls-7" d="M142.57,301.61s17,14.81,76.28,15.86c0,0,2.7,37.46,20.58,63.14,0,0-22.42-4.23-34.12,8.78,0,0,29.5,2.77,50.17-2.68a24.58,24.58,0,0,0-2.06-9s-4.08-17.59,3.65-40.16l-10.31-5.07L235.85,308.1S184.83,320.47,142.57,301.61Z" transform="translate(-9.59 -5.24)"/><path class="cls-7" d="M196.82,22l-.5-.23c5.2-3.55-6.83-2-7.74-2.7-2.72-2.11,1.78-6.14.4-9.72-.57-1.48-1.24-3.62-3.3-2.39s-.23,3.58-.37,5.17c-.31,3.68-4.78,5.42-5.05,8.81-.35,4.12,3.26,3.5-2.38,4.72-1.45.31-7,2-5.43,3.91,1.05,1.26,5.86-.09,7.26-.2,4.71-.35,14.34,0,16.87,5,2,4-.17,9,2.45,13.07,1.87,2.9,3.78,5.49,5.07,8.75,2.42,6.21,3.29,13.44,1,19.83-5.23,14.92-16.32,25.17-31.08,30.44-9,3.23-18.71,6.16-28.38,7.19,8,4.08,22.35,7.75,33.68,7.33,10.45-.39,26.05-5,36.5,3.16,5.46,4.26,7.16,13.74,11.06,18.79,5.77-6,9.41-13.83,15-20.14,6.54-7.45,12-6.25,12-6.25l.11-.06c-.47.24-9.17-20.71-9.89-22.54C233.92,68,224.2,34.81,196.82,22Z" transform="translate(-9.59 -5.24)"/><path class="cls-7" d="M78.12,216.76s-.36,5-4.68,10.79c0,0,30.94,16.19,49.64,7.91l5-10.06,1.21,6.23s-6.39,26.16-7,36.76c0,0-33.5-.19-62.76-41.74a20.73,20.73,0,0,0,16.18-11.79Z" transform="translate(-9.59 -5.24)"/><path class="cls-7" d="M243.51,131.67s10.93-1.35,12.37,7.28c0,0,11.41,65.7,2.77,102,0,0-14.49,61.8-4.42,88.42,0,0,1.8,9,10.79,8.28l11.45-6.4s-1.14-9.9-11.52-10.38l-2.28.3-.52-9.78S280.23,254,283.6,246.92c0,0,5.52-61.41-18.22-111.77l-5-9-8.67-3.37Z" transform="translate(-9.59 -5.24)"/><path class="cls-8" d="M169.06,18.56s-33.48.42-44,28c0,0,11-16,20.22-11.16,0,0-2.53-4-6.74-3.38C138.53,32,152.22,19.82,169.06,18.56Z" transform="translate(-9.59 -5.24)"/><path class="cls-8" d="M237,169.34s-10.14,57.68-8,81.8c0,0,3.49,41.95,14.68,67.47,0,0-10.84-55.93-11.19-68.87S237,169.34,237,169.34Z" transform="translate(-9.59 -5.24)"/><path class="cls-8" d="M129.09,298.13s2.49,42,25.18,71.18c0,0-21.44-35.74-21.44-69.94Z" transform="translate(-9.59 -5.24)"/><path class="cls-8" d="M207.43,329.84s5,29.22,21.44,43.2C228.87,373,213,350.67,207.43,329.84Z" transform="translate(-9.59 -5.24)"/><g class="cls-9"><path class="cls-10" d="M183.16,282.61a.88.88,0,0,0-1.29-.86c-.4.13-.58,0-.78-.31l-.15-.18-.59.09a15,15,0,0,1-1.28-1.49c-.16-.25-.49-.39-.46-.85s-.34-.71-.59-1a3.28,3.28,0,0,1-.1-.74,3.16,3.16,0,0,1,.21-.7,2.14,2.14,0,0,0,.15-.47c0-.34,0-.68,0-1a3.65,3.65,0,0,1,.17-.67c0-.06.09-.16.07-.18-.28-.37.15-.54.23-.82a2.78,2.78,0,0,1,.33-.89c.16-.22.1-.31,0-.46-.32-.35-.66-.69-1-1.06a.37.37,0,0,1,0-.36c.07-.24-.07-.25-.23-.35s-.15-.32-.16-.5a1,1,0,0,1,.16-.39l.14.14.07,0c-.11-.21-.21-.43-.32-.7.48-.08.38-.77.74-.88l.77-.75a1.21,1.21,0,0,1,0,.18l.4.22.1-.17A4.06,4.06,0,0,1,180,267a1.42,1.42,0,0,0,.12.27c.11.21.27.25.36,0s.16-.2.34-.13a.49.49,0,0,0,.29,0c.28-.09.5-.23.7.17s.47.38.76.6c-.05.07-.15.18-.22.29s-.16.25-.13.35a.35.35,0,0,0,.29.2c.56,0,.55,0,.53.54,0,.13.17.28.28.42-.08.06-.23.12-.3.24s.13.6.42.75a.55.55,0,0,0,.87-.27c0-.07.16-.08.24-.12.09.23.17.44.26.7l.38-.33c.15.14.28.35.46.42a1.44,1.44,0,0,0,.59-.08,1.67,1.67,0,0,1,.25.5.7.7,0,0,0,.71.52c.21,0,.44-.2.67-.29a.67.67,0,0,1,.43-.07.41.41,0,0,1,.21.33.7.7,0,0,1-.26.39,1.48,1.48,0,0,1-.52.17,3.27,3.27,0,0,1,.33.39.63.63,0,0,1,.12.32c0,.21,0,.39.19.55a2.24,2.24,0,0,1,.38.7c.14.26.48.47.23.84a1.28,1.28,0,0,0,.19.17c-.45.19-.2.53-.18.8a1.89,1.89,0,0,1-.24,1.32.44.44,0,0,0-.05.61c.07.09,0,.3,0,.55l-.17.09.22.44a.94.94,0,0,1,.18-.14c.11.58-.35.46-.65.56.18.41-.21.43-.38.6a4.05,4.05,0,0,1-.47.41,1.31,1.31,0,0,0-.72.51c-.16.3-.21.7-.62.79-.2,0-.52.12-.6,0-.33-.37-.66-.2-1-.08S183.61,282.42,183.16,282.61Z" transform="translate(-9.59 -5.24)"/><path class="cls-10" d="M166.93,266c0-.26,0-.45.37-.41.17,0,.3-.25.56-.16s.44-.11.49,0a1.5,1.5,0,0,1,.37.76c0,.48.39.64.63.91s.43,0,.4-.29a2.17,2.17,0,0,1,.71-1.63,10.64,10.64,0,0,1,1.6-1.39,2.75,2.75,0,0,1,.89-.44,2.1,2.1,0,0,1,.65,0c-.06.27-.13.51-.16.76,0,.07.09.18.16.22a.77.77,0,0,1,.5.68c0,.16.17.3.25.45l.44.85c0,.05,0,.12.05.15.47.4.17.89.12,1.33a1.65,1.65,0,0,1-.45.77,4.39,4.39,0,0,1-1.55,1.1c-.05,0-.12,0-.17-.06s-.21-.11-.26-.08c-.42.3-.77,0-1.13-.14a1.44,1.44,0,0,1-.52-.33c-.2-.19-.29-.5-.64-.55-.06,0-.11-.22-.12-.33,0-.32-.11-.43-.42-.25a.42.42,0,0,1-.36,0c-.44-.18-.87-.4-1.29-.61-.06,0-.11-.09-.17-.09-.47,0-.44-.27-.36-.58A.59.59,0,0,0,166.93,266Z" transform="translate(-9.59 -5.24)"/><path class="cls-10" d="M196,272.33a.78.78,0,0,1,.87.44,11.73,11.73,0,0,0,.63,1.22.86.86,0,0,1,.1.9.89.89,0,0,1-.71.21,2.85,2.85,0,0,1-.87-.28,3.81,3.81,0,0,1-1.63-1.23.52.52,0,0,0-.19-.2,1.64,1.64,0,0,1-.65-.95,5.63,5.63,0,0,0-.82-1.15.59.59,0,0,0-.34-.14.47.47,0,0,1-.36-.61c.09-.31.27-.37.55-.21s.35.19.51.3c.62.42,1.11,1.05,2,.89C195.48,271.45,195.76,271.75,196,272.33Z" transform="translate(-9.59 -5.24)"/><path class="cls-10" d="M177.65,271.22a2.2,2.2,0,0,0-.17.79c0,.22.31.39.4.5-.27.25-.49.48-.71.7,0,.05-.09.16-.1.15-.39-.2-.7.24-1,.14a4,4,0,0,1-1-.43c-.1-.05-.12-.28-.17-.42s-.14-.45-.19-.68a.61.61,0,0,1,0-.26,2.34,2.34,0,0,0,.15-.27c.11-.32.16-.67.54-.83a2.13,2.13,0,0,1,1.53-.08c.06,0,.1.12.15.18S177.43,271,177.65,271.22Z" transform="translate(-9.59 -5.24)"/><path class="cls-10" d="M192,278c.1.29.19.61.28.95a.78.78,0,0,0-.22,0c-.47.25-.89-.05-1.32-.07-.13,0-.3-.05-.4,0-.41.24-.66,0-.91-.25l.55-.43s0,.05,0,.08l-.14.12a3.08,3.08,0,0,1,.64.27.43.43,0,0,0,.56-.12c.14-.13.23-.36.38-.47A1.65,1.65,0,0,1,192,278Z" transform="translate(-9.59 -5.24)"/><path class="cls-10" d="M175.46,262.88c-.19-.59-.63-.17-1-.32.14-.3.26-.59.41-.87a.32.32,0,0,1,.2-.14,6.11,6.11,0,0,1,.83-.17,1.12,1.12,0,0,1,.31.05c0,.12,0,.27-.07.32a.76.76,0,0,0-.37.75C175.79,262.61,175.6,262.73,175.46,262.88Z" transform="translate(-9.59 -5.24)"/><path class="cls-10" d="M191.55,283.94c-.17-.27,0-.49.24-.64s.81.34,1,.78-.07.44-.29.53S191.72,284.46,191.55,283.94Z" transform="translate(-9.59 -5.24)"/><path class="cls-10" d="M191,281a3.07,3.07,0,0,0-.13.63c0,.4-.28.4-.57.42s-.51-.12-.46-.39a1.27,1.27,0,0,1,.32-.69.41.41,0,0,1,.65,0S191,281,191,281Z" transform="translate(-9.59 -5.24)"/><path class="cls-10" d="M190.74,268.07c.44-.23.84-.48,1.26-.65.25-.11.46.16.37.44a5.24,5.24,0,0,1-.29.71Z" transform="translate(-9.59 -5.24)"/><path class="cls-10" d="M190,284.48a.85.85,0,0,1,1.17-.11.59.59,0,0,1,.2.4c0,.1-.21.23-.34.25A.86.86,0,0,1,190,284.48Z" transform="translate(-9.59 -5.24)"/><path class="cls-10" d="M193,279.35c.16-.21.29-.54.49-.6s.46.19.68.31a2.89,2.89,0,0,1-.6.8C193.18,280.06,193.22,279.58,193,279.35Z" transform="translate(-9.59 -5.24)"/><path class="cls-10" d="M185.88,285.21c-.38-.12-.68-.2-1-.32-.06,0-.13-.25-.08-.3a1.17,1.17,0,0,1,.45-.46.4.4,0,0,1,.53.31C185.85,284.66,185.85,284.89,185.88,285.21Z" transform="translate(-9.59 -5.24)"/><path class="cls-10" d="M184.5,268.94a.59.59,0,0,1-.59-.37c0-.19.38-.67.64-.68s.3.17.35.32A.6.6,0,0,1,184.5,268.94Z" transform="translate(-9.59 -5.24)"/><path class="cls-10" d="M181.41,286.12c.54-.19.78.27,1.1.48.1.06.08.3.12.47C182,287,181.51,286.83,181.41,286.12Z" transform="translate(-9.59 -5.24)"/><path class="cls-10" d="M176.94,264.7c0,.27.11.59-.24.67a.52.52,0,0,1-.44-.32c-.06-.19-.16-.51.26-.58C176.75,264.42,176.9,264.44,176.94,264.7Z" transform="translate(-9.59 -5.24)"/><path class="cls-10" d="M201.23,278.52c.08-.2.18-.44.33-.77.15.08.41.14.46.28a1.31,1.31,0,0,1-.06.64s-.2.06-.29,0Z" transform="translate(-9.59 -5.24)"/><path class="cls-10" d="M188.93,267.17l-1.08.58,0,.1c-.19-.13-.38-.26-.66-.43l.46-.05c0-.05.09-.2.16-.21s.24.08.39.13C188.53,266.93,188.78,266.87,188.93,267.17Z" transform="translate(-9.59 -5.24)"/><path class="cls-10" d="M184.3,262.9l.89-.78.15.06c0,.23,0,.5-.05.66C185.05,263.26,184.7,262.87,184.3,262.9Z" transform="translate(-9.59 -5.24)"/><path class="cls-10" d="M191.31,264.85l.33.19c0,.29,0,.57,0,.87L191,266C191.1,265.58,191.19,265.25,191.31,264.85Z" transform="translate(-9.59 -5.24)"/><path class="cls-10" d="M191.27,286.25l-.15.53-.88-.27C190.6,286.21,190.86,286,191.27,286.25Z" transform="translate(-9.59 -5.24)"/><path class="cls-10" d="M190.27,272.86c.45-.19.83-.14.84.12s-.23.34-.38.54C190.53,273.25,190.41,273.06,190.27,272.86Z" transform="translate(-9.59 -5.24)"/><path class="cls-10" d="M200.36,279.28c-.17.38-.58-.1-.84.1l.34-.28-.44-.23c.14-.12.24-.22.35-.3a1.77,1.77,0,0,0,.19.33C200.07,279,200.2,279.12,200.36,279.28Z" transform="translate(-9.59 -5.24)"/><path class="cls-10" d="M187.06,267.69a2,2,0,0,1,0,.45.82.82,0,0,1-.18.4c-.06,0-.28,0-.37-.12s0-.26.13-.38A2.35,2.35,0,0,0,187.06,267.69Z" transform="translate(-9.59 -5.24)"/><path class="cls-10" d="M181,263.5a4.34,4.34,0,0,1-.46.58c-.05.05-.24-.05-.37-.08,0-.09,0-.24.09-.28a5.86,5.86,0,0,1,.67-.32A.86.86,0,0,0,181,263.5Z" transform="translate(-9.59 -5.24)"/><path class="cls-10" d="M178.72,284.91c0-.43.07-.66.52-.64,0,.13.1.35,0,.41A1.78,1.78,0,0,1,178.72,284.91Z" transform="translate(-9.59 -5.24)"/><path class="cls-10" d="M180.33,282.51c-.09-.43-.12-.76.36-.9C181,282,180.6,282.22,180.33,282.51Z" transform="translate(-9.59 -5.24)"/><path class="cls-10" d="M178.26,262.54c-.15.18-.23.35-.29.34a1.42,1.42,0,0,1-.45-.16c.07-.14.12-.33.24-.38S178,262.44,178.26,262.54Z" transform="translate(-9.59 -5.24)"/><path class="cls-10" d="M183.45,262.08a4.83,4.83,0,0,1,.56-.36c.05,0,.19.06.27.12s-.05.19-.1.22a.73.73,0,0,1-.36.11A1.58,1.58,0,0,1,183.45,262.08Z" transform="translate(-9.59 -5.24)"/><path class="cls-10" d="M182.55,263a2.32,2.32,0,0,1,.08-.22l-.38.07-.06-.08c.19-.13.37-.28.56-.42a.3.3,0,0,0,.08.08C182.76,262.63,183.12,263,182.55,263Z" transform="translate(-9.59 -5.24)"/><path class="cls-10" d="M176.48,274.69l.42.4-.06.13a1.43,1.43,0,0,1-.51-.07s0-.28,0-.42Z" transform="translate(-9.59 -5.24)"/><path class="cls-10" d="M183.64,265.22c0,.21.09.43.13.69-.55-.16-.59-.3-.27-.68Z" transform="translate(-9.59 -5.24)"/><path class="cls-10" d="M202.57,275.63c-.16-.15-.32-.23-.34-.34s.14-.22.24-.29.24.11.25.19S202.65,275.43,202.57,275.63Z" transform="translate(-9.59 -5.24)"/><path class="cls-10" d="M198.43,271.88c-.1.12-.18.25-.21.24-.18-.1-.36-.2-.54-.32a1.51,1.51,0,0,1,.09-.18C198,271.69,198.17,271.78,198.43,271.88Z" transform="translate(-9.59 -5.24)"/><path class="cls-10" d="M178.71,282.1c.23.18,0,.32-.09.41-.24.2-.34.17-.49,0Z" transform="translate(-9.59 -5.24)"/><path class="cls-10" d="M198.09,268.21v.51l-.37-.05C197.79,268.45,197.56,268.05,198.09,268.21Z" transform="translate(-9.59 -5.24)"/><path class="cls-10" d="M192.45,273.07l-.81-.17a.37.37,0,0,1,0-.11,5.1,5.1,0,0,1,.67,0S192.4,273,192.45,273.07Z" transform="translate(-9.59 -5.24)"/><path class="cls-10" d="M186.88,290.93l-.54-.35C187,290.49,187,290.5,186.88,290.93Z" transform="translate(-9.59 -5.24)"/><path class="cls-10" d="M199.34,277.43l.38.24-.63.28-.07-.09C199.12,277.72,199.22,277.58,199.34,277.43Z" transform="translate(-9.59 -5.24)"/><path class="cls-10" d="M190.06,270l.16.13a1,1,0,0,1,.12.15c-.06.11-.11.22-.18.37l-.29-.15C189.94,270.36,190,270.18,190.06,270Z" transform="translate(-9.59 -5.24)"/><path class="cls-10" d="M180,264.13c-.21.16-.37.28-.57.45C179.38,264.15,179.5,264.05,180,264.13Z" transform="translate(-9.59 -5.24)"/><path class="cls-10" d="M189.61,279.87c.14.17.28.36.45.59-.35,0-.35,0-.52-.54Z" transform="translate(-9.59 -5.24)"/><path class="cls-10" d="M199.62,284.43l-.27-.28.5-.27.07.1C199.83,284.11,199.74,284.27,199.62,284.43Z" transform="translate(-9.59 -5.24)"/></g><path class="cls-4" d="M136,202.25s-11,18.33,1.33,33C137.28,235.26,130,218.92,136,202.25Z" transform="translate(-9.59 -5.24)"/><path class="cls-4" d="M130.62,235.6s-7,35.65-5.34,48.33c0,0-3.67,2-2,5.66,0,0,34.34,15.67,49.67,16l-46-19.34s3.33,0,1.67-4.33C128.62,281.92,127.28,248.92,130.62,235.6Z" transform="translate(-9.59 -5.24)"/><path class="cls-7" d="M138,153.8s3.18,30.17,13,38.12c0,0,19.32,13.49,46.57,1.32A38.69,38.69,0,0,1,172.35,202s-23,2.65-30.16-16.67C142.19,185.3,137.16,158.84,138,153.8Z" transform="translate(-9.59 -5.24)"/><path class="cls-8" d="M136.54,182.19s-8.5,22-23.08,39.53l2.92.7s14.09-17.74,20.4-34.08Z" transform="translate(-9.59 -5.24)"/><path class="cls-11" d="M257.78,125.1c-6.89-10.76-12-23.89-17.34-37.79-10.11-26.17-20.56-53.24-44.15-64.51l.9-1.88C221.51,32.55,232.12,60,242.38,86.56c5.33,13.8,10.37,26.84,17.14,37.42Z" transform="translate(-9.59 -5.24)"/><path class="cls-11" d="M234.89,173.25c-.29,3.42-.76,6.79-1.25,10.16s-1.06,6.71-1.64,10.06-1.1,6.7-1.59,10.06-.95,6.72-1.39,10.08-.82,6.75-1.13,10.13-.6,6.76-.86,10.13-.4,6.76-.42,10.15c0,1.68-.11,3.38-.05,5.06l.09,5c.34,3.35.77,6.73,1.25,10.08.22,1.67.48,3.35.75,5s.53,3.36.83,5,.58,3.34.91,5,.61,3.33,1,5l1.06,5,1.17,5c.37,1.64.87,3.27,1.28,4.91s.85,3.27,1.36,4.89.94,3.24,1.46,4.86l1.63,4.79c.51,1.61,1.2,3.16,1.8,4.73l.92,2.35c.33.78.69,1.54,1,2.31l1,2.29a24.91,24.91,0,0,0,1.11,2.26l2.41,4.43-.21-.23h0c.32.27.72.58,1.11.86s.79.55,1.21.8.83.51,1.24.74.86.45,1.3.67.87.39,1.31.6.91.33,1.36.5a10.94,10.94,0,0,0,1.38.41,9.47,9.47,0,0,0,1.4.32c.47.07.94.19,1.41.23l1.42.1c.49,0,1,0,1.43,0l.71,0,.71-.11c.46-.09.94-.13,1.4-.23l1.38-.39a7.35,7.35,0,0,0,1.33-.49l1.32-.55-.11.06,7.12-4.75-.38,1.26c-.27-.62-.61-1.29-.94-1.92s-.71-1.25-1.12-1.85-.83-1.16-1.27-1.72a19.27,19.27,0,0,0-1.44-1.55A8.57,8.57,0,0,0,270,324a7.45,7.45,0,0,0-.82-.6c-.3-.18-.57-.38-.88-.53l-.9-.41c-.31-.12-.64-.17-1-.27a3.63,3.63,0,0,0-1-.15,3.93,3.93,0,0,0-1,0l-1,.09-.39-2,1.27-.14a5.24,5.24,0,0,1,1.25,0,6.51,6.51,0,0,1,1.25.19c.42.11.83.21,1.22.35l1.14.51c.37.19.7.43,1,.64a8,8,0,0,1,1,.72,9.91,9.91,0,0,1,.91.79,19,19,0,0,1,1.63,1.74c.49.62,1,1.24,1.39,1.89s.83,1.33,1.21,2a20.87,20.87,0,0,1,1,2.12l1.18-.37L277,332.14l-7.12,4.75-.07.05-.05,0-1.46.62a8.64,8.64,0,0,1-1.5.54l-1.54.44c-.51.12-1.05.17-1.57.26l-.79.12-.81,0c-.53,0-1.05.06-1.59,0l-1.59-.12c-.53-.05-1-.16-1.57-.24a23.49,23.49,0,0,1-3.06-.82,15.38,15.38,0,0,1-1.48-.54c-.47-.22-1-.4-1.44-.65s-.93-.45-1.39-.72-.91-.5-1.34-.8-.89-.57-1.32-.87-.83-.62-1.27-1h0l-.13-.1-.07-.14-2.55-4.5c-.44-.74-.8-1.52-1.17-2.3l-1.1-2.34c-.36-.77-.74-1.54-1.09-2.33l-1-2.39c-.62-1.6-1.34-3.16-1.87-4.8l-1.71-4.84c-.53-1.64-1-3.27-1.52-4.91s-1-3.28-1.42-4.93-.92-3.3-1.3-5l-1.2-5-1.07-5c-.37-1.67-.66-3.35-1-5s-.64-3.35-.92-5-.58-3.37-.84-5.05-.52-3.38-.76-5.07c-.48-3.39-.92-6.77-1.27-10.18l0-.24v-2.41l0-2.58c-.05-1.71.05-3.42.08-5.14.06-3.42.32-6.83.53-10.25s.54-6.8.93-10.2.81-6.78,1.23-10.16.93-6.76,1.48-10.13,1.09-6.73,1.68-10.09,1.25-6.7,2-10A92.31,92.31,0,0,1,234.89,173.25Z" transform="translate(-9.59 -5.24)"/><path class="cls-11" d="M251.22,122.36a10,10,0,0,1,8.83,2.08,19.58,19.58,0,0,1,5.06,7.19c1.21,2.57,2.3,5.16,3.37,7.76s2,5.25,3,7.91,1.81,5.33,2.7,8,1.61,5.4,2.42,8.1,1.41,5.44,2.13,8.16,1.21,5.5,1.83,8.25,1,5.53,1.55,8.29.86,5.57,1.27,8.35l.56,4.19c.18,1.39.28,2.8.41,4.2l.39,4.2c.13,1.4.29,2.8.32,4.21l.37,8.43c.09,1.41,0,2.82,0,4.23l0,4.23,0,4.22c0,1.41-.15,2.81-.23,4.22l-.53,8.43v.15l-.07.17c-1,2.42-2,4.89-3,7.37s-1.93,4.95-2.85,7.44c-.46,1.25-1,2.49-1.39,3.74L276,269.64l-1.31,3.76c-.45,1.25-.85,2.52-1.27,3.78-.82,2.52-1.66,5-2.47,7.58l-2.3,7.63c-.38,1.28-.78,2.54-1.13,3.83l-1,3.84-2.06,7.7,0,.12-.08.15h0c-.12.31-.26.75-.39,1.15s-.22.82-.32,1.24-.16.86-.22,1.28-.11.86-.16,1.29a21,21,0,0,0-.08,2.63c0,.43,0,.87.05,1.31s.05.89.14,1.32l.17,1.31c.06.45.18.88.27,1.32.16.87.41,1.74.63,2.61a11.67,11.67,0,0,0,.36,1.32l.34,1.34a27.63,27.63,0,0,1,.68,2.75,24.06,24.06,0,0,1-1.79-2.24,24.65,24.65,0,0,1-1.38-2.52l-.55-1.34a12.91,12.91,0,0,1-.45-1.37c-.12-.47-.29-.93-.38-1.4l-.3-1.43c-.1-.47-.13-1-.19-1.45a10.15,10.15,0,0,1-.12-1.46,14.42,14.42,0,0,1,0-1.47,12.13,12.13,0,0,1,.11-1.48,15.28,15.28,0,0,1,.57-2.91,11.36,11.36,0,0,1,.5-1.42,10.23,10.23,0,0,1,.7-1.41h0l-.1.27,2.08-7.74,1-3.87c.35-1.29.75-2.56,1.13-3.85l2.3-7.67c.81-2.54,1.67-5.06,2.49-7.6.42-1.28.82-2.54,1.26-3.81L274,269l1.34-3.77c.43-1.27.92-2.51,1.38-3.77.94-2.5,1.88-5,2.86-7.47s2-5,3-7.44l-.09.32.53-8.35c.07-1.39.19-2.78.22-4.18l0-4.17,0-4.2c0-1.39.05-2.79,0-4.17l-.38-8.36c0-1.4-.19-2.79-.31-4.18l-.38-4.17c-.15-1.39-.24-2.77-.41-4.16l-.57-4.15c-.39-2.76-.7-5.54-1.25-8.27s-.94-5.51-1.54-8.23-1.17-5.46-1.82-8.18-1.37-5.4-2.1-8.1-1.55-5.37-2.4-8-1.7-5.31-2.67-7.93-1.95-5.23-3-7.82-2.14-5.16-3.33-7.66A25.79,25.79,0,0,0,261.3,129a12.67,12.67,0,0,0-2.56-2.89,8.64,8.64,0,0,0-3.31-1.7,9.74,9.74,0,0,0-4.12-.09Z" transform="translate(-9.59 -5.24)"/><path class="cls-11" d="M149.8,320.58c2.18,1.09,4.38,2.09,6.57,3.09,1.11.48,2.2,1,3.31,1.45s2.21.93,3.33,1.37a81.56,81.56,0,0,0,13.69,4.26c1.16.26,2.34.46,3.51.67s2.35.38,3.54.49,2.37.23,3.55.31,2.37.11,3.55.07,2.38-.07,3.56-.14,2.35-.21,3.53-.37l1.74-.28c.59-.1,1.17-.24,1.74-.36,1.16-.21,2.31-.57,3.45-.85h0L206,330l.17,1.19c.15,1,.33,2,.55,3s.43,2,.68,3c.48,2,1.07,4,1.68,6,.32,1,.68,2,1,2.94s.74,1.93,1.11,2.91.79,1.9,1.21,2.86.84,1.89,1.32,2.82.92,1.85,1.41,2.75l1.54,2.7c.49.91,1.12,1.73,1.67,2.61s1.12,1.74,1.77,2.55l1.87,2.45c.66.8,1.36,1.55,2,2.33l1,1.15,1.12,1.07,2.23,2.14-2.18.34-1.51-1-1.15-1.11-1.07-1.19c-.7-.81-1.43-1.6-2.12-2.41l-1.93-2.55c-.67-.83-1.23-1.74-1.82-2.62s-1.21-1.76-1.72-2.69l-1.59-2.77c-.51-.94-1-1.89-1.45-2.84s-.92-1.91-1.35-2.89-.87-1.93-1.24-2.93-.79-2-1.13-3-.71-2-1-3c-.64-2-1.23-4.07-1.73-6.13-.25-1-.49-2.07-.71-3.11s-.4-2.08-.55-3.17l1.33.85h0c-1.19.34-2.36.77-3.57,1-.61.13-1.21.29-1.81.41l-1.84.32c-1.23.19-2.45.34-3.69.44s-2.47.16-3.71.16-2.47-.06-3.7-.1-2.46-.17-3.69-.34-2.44-.33-3.65-.53-2.42-.48-3.61-.77a84.38,84.38,0,0,1-13.91-4.72,66.58,66.58,0,0,1-6.51-3.35q-1.59-.94-3.09-2C151.72,322.09,150.72,321.39,149.8,320.58Z" transform="translate(-9.59 -5.24)"/><path class="cls-11" d="M145,390.54a184,184,0,0,1-19.36-1,1,1,0,0,1-.76-.46,1.07,1.07,0,0,1-.12-.89c.12-.37,3-9.05,15.39-10.6a1,1,0,0,1,1.16.91,1,1,0,0,1-.9,1.15c-8.39,1.05-11.9,5.74-13.11,8,28.23,2.75,49.46-1.92,53.53-2.91a11.76,11.76,0,0,0-1.84-6.49.81.81,0,0,1-.17-.39c-3-14.26-1.27-29.48,5-45.22a1,1,0,0,1,1.93.78c-6.12,15.27-7.79,30-5,43.82a13.53,13.53,0,0,1,2,8.43,1,1,0,0,1-.75.9C181.91,386.58,167.13,390.54,145,390.54Z" transform="translate(-9.59 -5.24)"/><path class="cls-11" d="M125.76,389.53a1.07,1.07,0,0,1-.25,0l-4.75-1.19a1,1,0,0,1-.68-.54,1,1,0,0,1,0-.85,16.64,16.64,0,0,1,14.29-10.84,1,1,0,0,1,1.07,1c0,.57.28.25-.29.27l-.46.07a16.54,16.54,0,0,0-12.2,9.16l3.57.89a1,1,0,0,1-.26,2Z" transform="translate(-9.59 -5.24)"/><path class="cls-11" d="M145.19,388.83c0-.44-.08-.84-.14-1.29s-.15-.88-.26-1.31a14.8,14.8,0,0,0-.81-2.52,12.63,12.63,0,0,0-.57-1.17,8.66,8.66,0,0,0-.68-1.09,7.69,7.69,0,0,0-.8-1c-.15-.15-.28-.32-.44-.46l-.48-.39-.49-.4a4.29,4.29,0,0,0-.55-.31,6.51,6.51,0,0,0-1.12-.56l-1.2-.4c-.42-.08-.85-.12-1.27-.18l-.64-.09h-.66l-1.31,0c-.43,0-.88.13-1.31.19l-1.32.22h0a1,1,0,0,1-1.22-.81,1,1,0,0,1,.44-1.07,18.85,18.85,0,0,1,2.12-1.27c.71-.37,1.44-.7,2.18-1s1.49-.57,2.24-.86,1.54-.46,2.32-.67,1.57-.36,2.36-.49l2.4-.31c.8-.05,1.61-.07,2.41-.09s1.62.08,2.42.11c.4,0,.81,0,1.21.09l1.18.21a18.79,18.79,0,0,1,2.37.49l2.31.69c.76.24,1.48.6,2.22.91a12.91,12.91,0,0,1,2.13,1.08c.68.43,1.35.85,2,1.29l.48.33c.16.12.31.27.46.4l.88.79c.58.55,1.15,1.08,1.68,1.66-.74-.31-1.44-.65-2.13-1s-1.34-.75-2.06-1-1.4-.59-2.09-.9a17.24,17.24,0,0,0-2.1-.82c-.72-.22-1.4-.56-2.12-.73l-2.17-.55a18.47,18.47,0,0,0-2.21-.35l-1.1-.16c-.37,0-.74,0-1.11-.06-.75,0-1.49-.11-2.23-.05l-2.22.12-2.21.29-2.19.45c-.72.17-1.44.39-2.16.58s-1.42.46-2.12.73-1.38.55-2.06.88-1.35.64-1.95,1l-.81-1.88h0l1.47-.24a14.06,14.06,0,0,1,1.47-.22l1.5,0,.76,0,.76.1c.5.07,1,.13,1.52.24l1.48.48a7.58,7.58,0,0,1,1.4.69,6.24,6.24,0,0,1,.67.4l.62.49.6.5a7,7,0,0,1,.54.55,8,8,0,0,1,1,1.21,9.33,9.33,0,0,1,.82,1.29,12.22,12.22,0,0,1,.65,1.37,15.28,15.28,0,0,1,.92,2.85,16.91,16.91,0,0,1,.45,3,1,1,0,0,1-2.07.09Z" transform="translate(-9.59 -5.24)"/><path class="cls-11" d="M218.67,391.73a184.09,184.09,0,0,1-19.36-1,1,1,0,0,1-.87-1.34c.11-.37,3-9.06,15.39-10.61a1,1,0,0,1,.26,2.06c-8.4,1.05-11.91,5.73-13.12,8,28.24,2.77,49.46-1.91,53.54-2.9a11.76,11.76,0,0,0-1.84-6.49.78.78,0,0,1-.18-.39c-2.66-12.85-1.55-26.25,3.4-40.95a1,1,0,0,1,2,.66C253.06,353,252,366,254.49,378.39a13.59,13.59,0,0,1,2,8.44,1,1,0,0,1-.76.88C255.58,387.76,240.79,391.73,218.67,391.73Z" transform="translate(-9.59 -5.24)"/><path class="cls-11" d="M199.43,390.71l-.26,0-4.75-1.18a1,1,0,0,1-.67-.54,1.07,1.07,0,0,1,0-.86A16.66,16.66,0,0,1,208,377.27a1,1,0,0,1,1.07,1c0,.58,0,0-.62.06a17.4,17.4,0,0,0-12.32,9.45l3.55.89a1,1,0,0,1-.24,2Z" transform="translate(-9.59 -5.24)"/><path class="cls-11" d="M218.85,390c0-.44-.07-.84-.13-1.29s-.16-.88-.26-1.31a15.75,15.75,0,0,0-.81-2.52,11.51,11.51,0,0,0-.57-1.17,7.71,7.71,0,0,0-.69-1.09,5.5,5.5,0,0,0-.8-1c-.14-.15-.28-.32-.43-.46l-.49-.4-.49-.39a4.74,4.74,0,0,0-.54-.31,5.82,5.82,0,0,0-1.12-.55l-1.21-.4c-.41-.09-.84-.13-1.26-.2l-.64-.08h-.66l-1.31,0c-.44,0-.88.13-1.32.2l-1.33.22h0a1,1,0,0,1-.78-1.89,21.31,21.31,0,0,1,2.13-1.24c.71-.38,1.44-.7,2.18-1s1.49-.59,2.25-.86,1.54-.45,2.33-.64,1.56-.34,2.35-.49l2.4-.31c.8-.05,1.6-.05,2.4-.08s1.61.09,2.41.13c.4,0,.8,0,1.2.1l1.18.21a21,21,0,0,1,2.36.49l2.29.7a23.53,23.53,0,0,1,2.21.93,16.9,16.9,0,0,1,2.12,1.08l2,1.29a13,13,0,0,1,1.84,1.47c.59.52,1.19,1,1.75,1.57-.71-.35-1.4-.72-2.08-1.09s-1.31-.79-2-1.06l-2.09-.92a14.74,14.74,0,0,0-2.12-.82c-.72-.22-1.41-.54-2.14-.71l-2.19-.53a15.92,15.92,0,0,0-2.21-.36l-1.11-.14c-.37,0-.74,0-1.11-.06-.75,0-1.49-.11-2.24,0l-2.23.14-2.21.29-2.19.46c-.73.18-1.44.41-2.16.6s-1.42.48-2.12.75-1.37.56-2,.89-1.36.66-2,1l-.82-1.88h0l1.46-.24c.5-.07,1-.19,1.47-.23l1.51,0,.75,0,.77.11c.5.08,1,.13,1.52.23l1.48.48a11.43,11.43,0,0,1,1.4.7c.22.14.47.24.67.39l.61.5.62.49c.18.18.35.38.52.57a8.57,8.57,0,0,1,1,1.2,9.62,9.62,0,0,1,.81,1.29,13.21,13.21,0,0,1,.66,1.37,16,16,0,0,1,.91,2.85,12.56,12.56,0,0,1,.29,1.46,15.16,15.16,0,0,1,.17,1.51,1,1,0,1,1-2.08.1Z" transform="translate(-9.59 -5.24)"/><path class="cls-11" d="M276.48,332.31a1,1,0,0,1-.75-1.76c.07-.09,7.3-7.63,7.7-20.79-3.58.33-7.45,1.05-8.16,1.78-.95,1-1.84,2-2.72,2.93a80.14,80.14,0,0,1-6.91,6.88,1,1,0,0,1-1.36-1.57,79.09,79.09,0,0,0,6.74-6.71c.89-1,1.8-2,2.76-3,1.7-1.75,8.57-2.37,10.62-2.51a1,1,0,0,1,1.12,1c0,15.29-6.83,22.34-8.3,23.38A1.33,1.33,0,0,1,276.48,332.31Z" transform="translate(-9.59 -5.24)"/><path class="cls-11" d="M272.3,325.3a1.07,1.07,0,0,1-.71-.28,1,1,0,0,1,0-1.47c.08-.08,7.89-8.48,10.36-15a1,1,0,0,1,1.94.74c-2.62,6.88-10.45,15.31-10.78,15.66A1,1,0,0,1,272.3,325.3Z" transform="translate(-9.59 -5.24)"/><path class="cls-11" d="M268.4,322.32a1.06,1.06,0,0,1-.84-.41,1,1,0,0,1,.2-1.45,39.79,39.79,0,0,0,9-10.7,1,1,0,0,1,1.42-.38,1,1,0,0,1,.38,1.41A40.88,40.88,0,0,1,269,322.1,1,1,0,0,1,268.4,322.32Z" transform="translate(-9.59 -5.24)"/><path class="cls-11" d="M111,222.34l-2.41-.37c12-13.84,22.21-31.94,27.43-48.43l1.38,1.72A130.67,130.67,0,0,1,111,222.34Z" transform="translate(-9.59 -5.24)"/><path class="cls-11" d="M60.38,227.07A11.21,11.21,0,0,1,54,225.21l-.66-.41,3.13-10.72,1.22,2a3.42,3.42,0,0,0,1.68,1.56,2.84,2.84,0,0,0,1,.17c2.31,0,6.62-2.81,9-9.05a17,17,0,0,0,1-9.35c-.27-1.19-1-3.29-2.57-3.9a2.62,2.62,0,0,0-1-.17c-1.74,0-4.55,1.53-6.89,5l-1.9,2.8V189.21l.47-.31c4.07-2.72,8.66-3.42,12.56-2,4.14,1.56,7.16,5.39,8.3,10.51A26,26,0,0,1,78,212.07C74.58,221.05,67.5,227.07,60.38,227.07Zm-4.57-3.22a9.21,9.21,0,0,0,1.06.51,9.86,9.86,0,0,0,3.5.63h0c6.27,0,12.56-5.49,15.65-13.65a24,24,0,0,0,1.27-13.43c-1-4.41-3.54-7.7-7-9a11.63,11.63,0,0,0-10.22,1.44v6.52c2.73-2.84,6-4.16,8.43-3.23S72,197.4,72.37,199a19.13,19.13,0,0,1-1.06,10.54c-2.58,6.82-7.46,10.39-10.93,10.39a5,5,0,0,1-1.72-.31,4.6,4.6,0,0,1-1.38-.81Z" transform="translate(-9.59 -5.24)"/><path class="cls-11" d="M122.32,268.75C88,265.27,64.08,235.08,57.56,225.91l2.49-.33c6.39,9,29.06,37.7,62.49,41.11Z" transform="translate(-9.59 -5.24)"/><path class="cls-11" d="M76.38,213.21l1.65.68,1.88.79c.73.34,1.56.56,2.46.89l2.9,1,3.33,1c1.15.37,2.36.67,3.59,1s2.47.64,3.72.91l3.76.75c1.24.28,2.48.41,3.67.6s2.34.37,3.44.48,2.13.23,3.09.35c.49,0,.94.14,1.38.2s.85.05,1.25.1c.78.06,1.47.12,2,.2,1.13.12,1.79.23,1.79.23s-.64.13-1.78.28l-2.06.26a18.73,18.73,0,0,1-2.68.12c-1,0-2,0-3.18-.05s-2.3-.22-3.53-.33-2.49-.24-3.75-.47l-3.87-.64c-1.28-.23-2.56-.54-3.82-.81s-2.49-.58-3.67-.94l-3.41-1c-1.08-.35-2.1-.72-3-1.07s-1.82-.61-2.52-1-1.35-.61-1.87-.83l-1.62-.77Z" transform="translate(-9.59 -5.24)"/><path class="cls-4" d="M58.31,181.47,12.1,182.8c-1.76,25.15,6.77,48.69,6.77,48.69,0,1.31,7.52,5.65,17.9,5.35s17.6-5.06,17.56-6.36C54.33,230.48,60.14,202.91,58.31,181.47Z" transform="translate(-9.59 -5.24)"/><path class="cls-12" d="M58.31,181.47l-11.73.34c1.88,23.32-3.85,53.29-3.85,53.29,0,.28-.27.7-.79,1.2,7.53-1.33,12.42-4.76,12.39-5.82C54.33,230.48,60.14,202.91,58.31,181.47Z" transform="translate(-9.59 -5.24)"/><path class="cls-11" d="M35.75,237.9h0c-9.12,0-17.27-3.7-17.88-6.13-.52-1.46-8.51-24.65-6.81-49a1.05,1.05,0,0,1,1-1l46.21-1.32a1,1,0,0,1,1.06.95c1.78,20.79-3.64,47.6-4,49.24-.19,1.85-4.22,3.79-5.48,4.37a35.27,35.27,0,0,1-13.09,2.89Zm-15.86-6.6c.67,1,6.77,4.51,15.86,4.51h1c9.47-.27,15.92-4.38,16.56-5.46,0,0,0-.05,0-.08.06-.27,5.57-26.82,4-47.72l-44.28,1.27c-1.45,24.3,6.7,47.1,6.78,47.32A1.36,1.36,0,0,1,19.89,231.3Z" transform="translate(-9.59 -5.24)"/><path class="cls-4" d="M12.1,182.77c0,1.61,10.42,2.61,23.19,2.24s23.06-2,23-3.56-10.43-2.62-23.19-2.25S12.05,181.16,12.1,182.77Z" transform="translate(-9.59 -5.24)"/><path class="cls-11" d="M30.12,186.13h0c-19,0-19-2.51-19.06-3.33,0-1.27,1.24-2.32,7.59-3.31a139.59,139.59,0,0,1,16.44-1.33c1.75,0,3.5-.08,5.19-.08,19,0,19,2.51,19.06,3.33,0,1.28-1.23,2.33-7.58,3.31a139.55,139.55,0,0,1-16.44,1.34C33.56,186.1,31.82,186.13,30.12,186.13Zm-16.39-3.41c2,.63,7.49,1.33,16.39,1.33h0c1.68,0,3.4,0,5.14-.08,11.33-.32,19-1.53,21.42-2.47-2-.64-7.49-1.33-16.4-1.33-1.67,0-3.4,0-5.13.07C23.81,180.57,16.12,181.77,13.73,182.72Z" transform="translate(-9.59 -5.24)"/><path class="cls-11" d="M126.27,294.48a2.85,2.85,0,0,1,.57.2,1,1,0,0,1,.34.28,1.45,1.45,0,0,1,.15.4,10,10,0,0,1,.28,2.72c.07,1.18.24,2.59.41,4.2.09.8.19,1.67.29,2.57s.26,1.86.4,2.85c.25,2,.64,4.12,1,6.39.17,1.14.44,2.29.68,3.46s.46,2.4.78,3.61.59,2.45.9,3.7.7,2.5,1,3.76.74,2.53,1.16,3.8.78,2.55,1.27,3.79.92,2.51,1.37,3.75,1,2.45,1.51,3.66,1,2.41,1.57,3.58,1,2.33,1.63,3.44c1.15,2.22,2.22,4.39,3.41,6.35.57,1,1.11,2,1.68,2.89s1.14,1.78,1.69,2.62c1,1.72,2.12,3.19,3,4.56.44.68.85,1.33,1.23,1.93s.77,1.1,1.07,1.6a13.92,13.92,0,0,1,1.56,3.46,13.24,13.24,0,0,1-2.9-2.45,33.14,33.14,0,0,1-2.68-3.34c-1-1.33-2.06-2.85-3.12-4.59L144.92,361c-.57-1-1.11-1.94-1.68-3-1.19-2-2.29-4.21-3.45-6.47-.59-1.12-1.09-2.31-1.66-3.5s-1.11-2.38-1.6-3.62-1-2.47-1.52-3.73l-1.41-3.81c-.49-1.27-.85-2.57-1.28-3.85s-.83-2.57-1.17-3.85-.74-2.55-1.06-3.82l-.92-3.75c-.32-1.23-.53-2.47-.79-3.66s-.51-2.35-.69-3.51c-.4-2.29-.79-4.46-1-6.46-.14-1-.28-2-.4-2.89s-.2-1.79-.3-2.61c-.18-1.65-.33-3.08-.42-4.25a9.49,9.49,0,0,1-.17-2.72,1.73,1.73,0,0,1,.08-.43,1,1,0,0,1,.29-.32A2.72,2.72,0,0,1,126.27,294.48Z" transform="translate(-9.59 -5.24)"/><path class="cls-11" d="M135.71,151.51a84.33,84.33,0,0,0-4.18-18.88c-1.67-4.69-3.67-9.43-5.6-14-9-21.52-18.4-43.78-3.23-75.57,8.56-17.94,27.15-28.29,49.71-27.65h.5c2.62,0,5.31,0,7.18-1.09.93-.57,1.08-2.1,1.23-3.73.17-1.79.35-3.64,1.7-4.67a4.12,4.12,0,0,1,3.35-.56,5.54,5.54,0,0,1,3.95,3.55,10,10,0,0,1,.67,5.57,9.59,9.59,0,0,1,6.27,1.13,4.24,4.24,0,0,1,2.11,4c-.18,2.4-1.91,3.59-4.18,3.76a11.26,11.26,0,0,1-4-.16c-1.28-.38-2-1.44-3.19-1.75a20.13,20.13,0,0,1,4.78-.23c3.21.22,4.4,0,4.53-1.78a2.18,2.18,0,0,0-1.16-2.09,7.42,7.42,0,0,0-6.35-.36l-3.67,2.06,2.3-3.54c.84-1.29.84-3.83,0-5.79A3.7,3.7,0,0,0,186,7.4a2.25,2.25,0,0,0-1.72.17c-.63.48-.77,1.86-.89,3.21-.19,2-.4,4.21-2.24,5.31-2.35,1.41-5.35,1.4-8.25,1.39h-.53c-21.75-.6-39.59,9.29-47.79,26.47-14.77,30.94-5.6,52.76,3.27,73.86,1.94,4.61,3.94,9.38,5.63,14.13a85.45,85.45,0,0,1,4.3,19.33Z" transform="translate(-9.59 -5.24)"/><path class="cls-11" d="M204.23,312.85c-42.64,0-79.28-18.12-82.17-19.58a4.1,4.1,0,0,1-3.25-2.69c-.92-2.32-.19-5.19,2-7.72-.21-20.06,4.44-42.87,9-51.71l1.85.95c-4.44,8.67-9,31.29-8.74,51.13v.41l-.27.31c-2.14,2.35-2.35,4.58-1.84,5.87a2.06,2.06,0,0,0,1.7,1.41l.21,0,.19.09c.56.3,57.35,29.52,112.75,15.75l.5,2A132.72,132.72,0,0,1,204.23,312.85Z" transform="translate(-9.59 -5.24)"/><path class="cls-11" d="M19.21,182.42s2-.32,5-.58c1.52-.15,3.29-.29,5.19-.39s3.91-.19,5.94-.27,4-.09,5.95-.08,3.67,0,5.19.09c3,.1,5.07.31,5.07.31s-2,.32-5.05.59c-1.51.14-3.28.28-5.18.38s-3.91.19-5.94.27-4.05.09-6,.07-3.67,0-5.19-.08C21.24,182.63,19.21,182.42,19.21,182.42Z" transform="translate(-9.59 -5.24)"/><path class="cls-13" d="M116.08,80.75c1,20.18,21.12,35.6,49.35,34.23s53.9-19,52.93-39.21c-.72-14.7-15.83-36.18-34.63-41.08-7-1.83-17.73,7-25.42,7.37-9.06.44-14-6-20.71-2.66C123.34,46.36,115.42,67,116.08,80.75Z" transform="translate(-9.59 -5.24)"/><path class="cls-14" d="M180.76,58.32c-3.75,5-3.82,13.63-.17,18.7,4.43,6.16,12.35,4.91,18.93,4.45,7.34-.51,12.09.43,15.19,7.57a17.86,17.86,0,0,0,3.89-10.19,34.78,34.78,0,0,0-2.06-12.41C208.78,59,190.1,45.91,180.76,58.32Z" transform="translate(-9.59 -5.24)"/><path class="cls-14" d="M138.89,60.1c-6.86-4.2-14.74,1.13-19.08,6.44C118.55,68.08,117,70,116.74,72a29.21,29.21,0,0,0-.74,9.71A45.44,45.44,0,0,0,118.4,91a10.52,10.52,0,0,1,5.7-7.44c5.51-2.77,15.4.06,19.3-5.33S144.13,63.31,138.89,60.1Z" transform="translate(-9.59 -5.24)"/><path class="cls-8" d="M118.75,73.37s-4.41,22.07,18.7,33.75C137.45,107.12,118.49,90.24,118.75,73.37Z" transform="translate(-9.59 -5.24)"/><path class="cls-11" d="M162,116.1h0c-26.19,0-45.92-14.85-46.92-35.3-.72-14.88,8-35.44,22.1-42.33a9.9,9.9,0,0,1,4.45-1.06,20.28,20.28,0,0,1,6.89,1.65c2.92,1,5.94,2.15,9.78,2,3.19-.15,7.14-2,11-3.69,4.25-1.93,8.65-3.93,12.44-3.93a9.6,9.6,0,0,1,2.33.28c19,5,34.64,26.67,35.39,42,1,20-24.21,38.85-53.89,40.29C164.31,116.08,163.12,116.1,162,116.1ZM141.59,39.49a8,8,0,0,0-3.54.84c-13.38,6.54-21.62,26.15-20.93,40.37C118.06,100,136.92,114,162,114h0c1.13,0,2.28,0,3.42-.08,28.59-1.39,52.85-19.2,51.93-38.12-.71-14.66-15.65-35.38-33.85-40.12a6.83,6.83,0,0,0-1.8-.22c-3.34,0-7.53,1.9-11.57,3.74s-8.14,3.7-11.72,3.88A26,26,0,0,1,147.78,41,18.89,18.89,0,0,0,141.59,39.49Z" transform="translate(-9.59 -5.24)"/><path class="cls-11" d="M214,89.35c-2.88-6.65-7.11-7.6-14.42-7.1l-1.75.13c-6.35.5-13.57,1.07-17.86-4.91-3.86-5.37-3.78-14.35.18-19.62a13,13,0,0,1,9.66-5.4c9.12-.71,20.39,6.78,27.28,13.43L216,67c-5.36-5.17-16.87-13.72-26.06-13a11.43,11.43,0,0,0-8.54,4.78c-3.53,4.69-3.61,13-.17,17.77,3.79,5.27,10.24,4.76,16.49,4.27l1.76-.13c7.66-.54,12.74.6,15.95,8Z" transform="translate(-9.59 -5.24)"/><path class="cls-11" d="M119.16,91.21l-1.52-.35a11.37,11.37,0,0,1,6.11-8c2.38-1.2,5.48-1.4,8.49-1.61,4.33-.29,8.43-.57,10.53-3.48,1.46-2,1.92-4.91,1.27-8.13-.76-3.8-2.94-7.3-5.56-8.9-6.81-4.17-14.56,2-18.06,6.26-1.21,1.47-2.71,3.31-2.91,5.09L116,72c.26-2.24,2-4.36,3.25-5.9,5.12-6.28,13.33-10.75,20.08-6.61,3,1.81,5.44,5.71,6.28,9.93.73,3.65.19,7-1.54,9.35-2.53,3.5-7.18,3.81-11.69,4.12-3,.2-5.79.39-7.89,1.45A9.73,9.73,0,0,0,119.16,91.21Z" transform="translate(-9.59 -5.24)"/><path class="cls-5" d="M84.32,197.36s-10.62-5.3-20.36-1.2c0,0-3.6,3-2.16,6.81,0,0,14.94-3.16,23.29-.76A6.44,6.44,0,0,0,84.32,197.36Z" transform="translate(-9.59 -5.24)"/><path class="cls-5" d="M85.66,203.5s-13.23-6.42-24.94-.79c0,0-2.93,4.73-.45,8.56,0,0,16.16-4.16,27.19-2.81A5.93,5.93,0,0,0,85.66,203.5Z" transform="translate(-9.59 -5.24)"/><path class="cls-14" d="M145,92.22c.45,9.34,7.83,12.13,16.75,11.7s16-3.94,15.54-13.27-8.43-24.25-17.35-23.82S144.52,82.89,145,92.22Z" transform="translate(-9.59 -5.24)"/><path class="cls-7" d="M175.18,90.75c-.34-7.07-5.65-18.12-11.81-21.09,4.92,4.67,8.78,14.14,9.07,20.55.18,3.94-.93,6.8-3.41,8.77a15.89,15.89,0,0,1-7.85,2.88h.44c4.44-.22,7.85-1.2,10.14-2.9C174.24,97.12,175.36,94.43,175.18,90.75Z" transform="translate(-9.59 -5.24)"/><path class="cls-11" d="M160,104.74c-9.95,0-15.41-4.31-15.81-12.48-.23-4.82,1.35-11.28,4.05-16.43,3.18-6.09,7.31-9.57,11.64-9.78,9.28-.47,17.68,14.71,18.15,24.56.23,4.65-1.31,8.22-4.57,10.64-2.75,2-6.69,3.2-11.7,3.45C161.17,104.73,160.58,104.74,160,104.74Zm.29-37.14H160c-3.69.18-7.45,3.44-10.33,8.94-2.57,4.93-4.1,11.07-3.87,15.64.36,7.29,5.15,11,14.26,11,.55,0,1.11,0,1.67,0,4.7-.23,8.36-1.28,10.86-3.14,2.81-2.09,4.14-5.22,3.94-9.31C176.05,81.78,168.46,67.6,160.29,67.6Z" transform="translate(-9.59 -5.24)"/><path class="cls-5" d="M84.13,208.79s-13.58-4.06-24.62,1.58c0,0-2.76,4.72-.42,8.56,0,0,16.34-6.54,26.73-5.18A6.15,6.15,0,0,0,84.13,208.79Z" transform="translate(-9.59 -5.24)"/><path class="cls-15" d="M69.34,200.48c.06-1.9,0-3.8,0-5.71A19.36,19.36,0,0,0,64,196.16s-3.19,2.62-2.36,6.15l-.88.4s-2.43,3.94-1,7.54l-.24.12s-2.76,4.72-.42,8.56c0,0,3.16-1.27,7.58-2.57a50.68,50.68,0,0,0,1.74-6.78h0c.08-.41.14-.82.2-1.23,0-.23.09-.47.13-.7h0c.29-1.93.47-3.88.57-5.85h0c0-.21,0-.42,0-.63s0-.47,0-.69Z" transform="translate(-9.59 -5.24)"/><path class="cls-11" d="M60.82,203.34c-1.67-4.51,2.3-7.84,2.47-8l.26-.16c10.07-4.24,20.78,1,21.24,1.23l.23.11.16.22c1.73,2.51.81,6.29.77,6.45l-2-.5a7.14,7.14,0,0,0-.33-4.54c-1.62-.74-10.76-4.53-19.09-1.12-.53.49-2.78,2.75-1.74,5.56Z" transform="translate(-9.59 -5.24)"/><path class="cls-11" d="M59.4,211.83c-2.81-4.33.3-9.46.44-9.67l.16-.26.27-.13c12-5.78,25.29.53,25.84.8l.24.16a7,7,0,0,1,2.14,5.89l-.16,1-1-.13a26.9,26.9,0,0,0-3.29-.06l-1.58,0v-2.08l1.53,0c.81,0,1.65,0,2.43,0a4.62,4.62,0,0,0-1.37-3c-1.38-.62-13.18-5.69-23.61-.88-.5,1-2.1,4.44-.32,7.2Z" transform="translate(-9.59 -5.24)"/><path class="cls-11" d="M59.07,219.56l-.87-.1c-2.63-4.3.29-9.41.41-9.62l.15-.26.28-.14a31,31,0,0,1,14.21-3.1,42.94,42.94,0,0,1,11.18,1.45l.23.07.18.18a7.16,7.16,0,0,1,2,5.85l-.15,1-1-.13a22.11,22.11,0,0,0-2.92-.18c-10,0-23.16,5.23-23.3,5.29Zm1.2-8.42c-.43.88-1.73,3.85-.68,6.47,3.2-1.2,14.25-5.1,23.18-5.1.7,0,1.37,0,2,.09a4.82,4.82,0,0,0-1.21-2.89,42.59,42.59,0,0,0-10.33-1.3A29.23,29.23,0,0,0,60.27,211.14Z" transform="translate(-9.59 -5.24)"/><path class="cls-11" d="M148.37,94.51a8.17,8.17,0,0,1,.87-.76c.28-.22.64-.48,1.08-.76a16.13,16.13,0,0,1,1.49-.85,16.36,16.36,0,0,1,1.87-.83,21.63,21.63,0,0,1,2.19-.69,18.5,18.5,0,0,1,2.42-.44,19.58,19.58,0,0,1,2.54-.16,21.55,21.55,0,0,1,2.55.16,22.34,22.34,0,0,1,2.41.47,20.1,20.1,0,0,1,2.19.71,12.29,12.29,0,0,1,1.86.85,10.68,10.68,0,0,1,1.49.85c.43.28.78.55,1.08.76.59.44.91.7.91.7s-.42-.11-1.1-.33L171,93.78c-.46-.19-1-.28-1.6-.46s-1.19-.36-1.87-.48-1.38-.29-2.11-.4-1.49-.21-2.25-.26a22.77,22.77,0,0,0-2.34-.09,18.3,18.3,0,0,0-2.34.08c-.77,0-1.52.15-2.26.25s-1.44.24-2.11.37-1.3.29-1.88.46c-1.16.31-2.13.63-2.81.86S148.37,94.51,148.37,94.51Z" transform="translate(-9.59 -5.24)"/><path class="cls-4" d="M138.93,75.44a7.2,7.2,0,0,0,.39-2.38c0-.12,0-.24,0-.37-3.9-3.94-8.72-2.7-14.55-1.31-.28.78-.49.81-.49,1.68a6.06,6.06,0,0,0,1.46,4C130.11,76,134.54,75,138.93,75.44Z" transform="translate(-9.59 -5.24)"/><path class="cls-11" d="M137.61,71.38s.14.25.14.27c.13,2.58-1.21,4-3.79,4.17a4.67,4.67,0,0,1-4.9-4.44,5,5,0,0,1,.08-1C132,69.18,134.36,69.62,137.61,71.38Z" transform="translate(-9.59 -5.24)"/><path class="cls-16" d="M130.83,71.57a1.67,1.67,0,0,0,3.34-.17,1.67,1.67,0,1,0-3.34.17Z" transform="translate(-9.59 -5.24)"/><path class="cls-11" d="M123.89,77.58a18,18,0,0,1,2.55-1.14,22.56,22.56,0,0,1,2.74-.84,26.24,26.24,0,0,1,3.24-.6,23,23,0,0,1,3.29-.17,14.91,14.91,0,0,1,1.52.07c.48,0,.93.09,1.34.17a14.7,14.7,0,0,1,2,.46l.73.23s-.28,0-.77,0l-.87-.06c-.34,0-.72,0-1.12,0s-.86,0-1.33,0-1,0-1.47.06-1,.08-1.57.12-1.08.11-1.62.17c-1.09.12-2.17.3-3.18.46s-2,.36-2.76.52-1.49.29-2,.41Z" transform="translate(-9.59 -5.24)"/><path class="cls-11" d="M122.28,73.73a5.49,5.49,0,0,1,.52-.77,8.37,8.37,0,0,1,.69-.81,10.51,10.51,0,0,1,1-.94,8.37,8.37,0,0,1,1.36-.95,10.46,10.46,0,0,1,1.67-.86l.94-.32a5.63,5.63,0,0,1,1-.25l1-.17,1.07,0a10.47,10.47,0,0,1,2.1.23,15.73,15.73,0,0,1,1.94.62c.6.27,1.13.61,1.65.89a10.27,10.27,0,0,1,1.31,1,5.76,5.76,0,0,1,1,1l.67.82c.35.46.54.74.54.74s-.31-.15-.82-.43c-.25-.14-.55-.3-.89-.51a8.33,8.33,0,0,0-1.16-.59c-.44-.19-.87-.45-1.37-.63L135,71.2c-.55-.11-1.11-.27-1.69-.36a12.76,12.76,0,0,0-1.75-.13h-.88l-.87.11a15,15,0,0,0-1.7.31c-.53.2-1.09.3-1.57.51s-1,.38-1.4.57c-.86.4-1.58.78-2.08,1.06S122.28,73.73,122.28,73.73Z" transform="translate(-9.59 -5.24)"/><path class="cls-4" d="M186.93,72.3a10.52,10.52,0,0,1-.59-2.92c0-.14-.07-.88-.06-1,4.91-2.38,7.95-2.24,14.29-.73.3.85,2.14.79,2.14,1.74a6.6,6.6,0,0,1-1.6,4.35A40.11,40.11,0,0,0,186.93,72.3Z" transform="translate(-9.59 -5.24)"/><path class="cls-11" d="M190.33,66.83s0,1.13,0,1.15a5.2,5.2,0,0,0,10.38-.5c0-.39-2-.3-2.08-.67C195.33,65.83,193.73,64.52,190.33,66.83Z" transform="translate(-9.59 -5.24)"/><path class="cls-16" d="M191.51,67.78a1.82,1.82,0,1,0,1.73-1.9A1.82,1.82,0,0,0,191.51,67.78Z" transform="translate(-9.59 -5.24)"/><path class="cls-11" d="M185.52,72.57a16,16,0,0,1,2.6-.66,20.33,20.33,0,0,1,2.73-.3,24.23,24.23,0,0,1,3.17.07c.53.08,1.06.12,1.59.23a14.82,14.82,0,0,1,1.53.35,13.32,13.32,0,0,1,1.39.45,12.35,12.35,0,0,1,2.88,1.53c.39.27.59.43.59.43l-.68-.26c-.22-.08-.48-.2-.79-.3s-.64-.19-1-.32-.8-.21-1.23-.34-.89-.19-1.36-.3-1-.15-1.48-.25-1-.12-1.54-.18-1-.09-1.54-.13-1-.07-1.51-.07c-1,0-1.89,0-2.69,0s-1.45,0-1.91,0Z" transform="translate(-9.59 -5.24)"/><path class="cls-11" d="M185.14,69.56a4.55,4.55,0,0,1,.52-.77,7.8,7.8,0,0,1,.72-.82,10.5,10.5,0,0,1,1.07-.92,10.07,10.07,0,0,1,1.43-.91,9.66,9.66,0,0,1,1.76-.72c.32-.09.64-.2,1-.27s.69-.12,1-.16a13.75,13.75,0,0,1,2.13-.06,17.91,17.91,0,0,1,2.09.38,16.45,16.45,0,0,1,1.91.68c.6.29,1.14.6,1.67.88s.92.68,1.32,1l.59.45c.15.17.32.33.46.48.29.29.53.56.73.78.39.44.6.7.6.7l-.86-.37-.93-.46a9.2,9.2,0,0,0-1.21-.56c-.45-.19-.93-.39-1.41-.62s-1.06-.34-1.61-.55-1.15-.27-1.72-.44-1.2-.17-1.79-.27a17.84,17.84,0,0,0-1.79,0l-.89.06c-.29,0-.57.09-.85.14a14.8,14.8,0,0,0-1.62.38c-.5.19-1,.32-1.43.51a22.9,22.9,0,0,0-2.11,1C185.42,69.37,185.14,69.56,185.14,69.56Z" transform="translate(-9.59 -5.24)"/><path class="cls-11" d="M229.57,196.06c-9.83-42,21.05-73.69,21.37-74,1.24-1,4.36-2,7.72,1.34l-1.47,1.47c-2.87-2.86-4.83-1.29-4.84-1.27-.24.24-30.31,31.12-20.75,72Z" transform="translate(-9.59 -5.24)"/><path class="cls-11" d="M253.72,117.46a7.49,7.49,0,0,0-2.66.2,11.1,11.1,0,0,0-2.67,1,18.26,18.26,0,0,0-4.68,3.52,94.48,94.48,0,0,0-7.67,9.48c-2.36,3.32-4.55,6.78-6.61,10.32s-4,7.18-5.79,10.85c-3.67,7.34-7,14.89-10.9,22.21a85.7,85.7,0,0,1-6.57,10.61,45.31,45.31,0,0,1-8.69,9.08,36.24,36.24,0,0,1-11.17,5.87,47.21,47.21,0,0,1-12.4,2.08c-2.08.07-4.2.06-6.25-.06a47.26,47.26,0,0,1-6.27-.75A27.34,27.34,0,0,1,149.68,197a23.28,23.28,0,0,1-7.46-10.27,56.89,56.89,0,0,1-3-12.18c-.63-4.1-1.07-8.21-1.59-12.28s-1.14-8.12-2-12.1l1.77.21-.13.32-.12.38c-.08.26-.14.53-.21.8-.11.55-.22,1.1-.29,1.67s-.11,1.13-.17,1.7,0,1.16-.05,1.73l0-.17c.32,1.87.55,3.7.75,5.55s.34,3.7.45,5.55c.21,3.71.26,7.42.13,11.14a81.17,81.17,0,0,1-3.57,22c-.32.89-.59,1.79-.95,2.66l-.51,1.31c-.16.39-.31.83-.46,1.24a51.35,51.35,0,0,0-1.5,5.19,42.16,42.16,0,0,0-1.19,10.64,20.14,20.14,0,0,0,2.73,10c.25.35.47.72.74,1.06l.4.5.2.25a2.07,2.07,0,0,0,.16.17,13.3,13.3,0,0,0,2,1.44,42.17,42.17,0,0,0,4.85,2.36,9.32,9.32,0,0,1-5.74-.62,9.72,9.72,0,0,1-2.55-1.64l-.32-.32-.23-.29-.47-.57c-.31-.39-.56-.81-.85-1.21a22.1,22.1,0,0,1-3.19-11A40.54,40.54,0,0,1,128.48,211a50.85,50.85,0,0,1,1.6-5.41c.16-.45.32-.88.51-1.35l.49-1.26c.35-.83.62-1.7.92-2.55A80.52,80.52,0,0,0,135.71,179c.16-3.65.12-7.3-.06-10.95-.09-1.83-.23-3.65-.41-5.47s-.4-3.64-.69-5.4V157c0-.62,0-1.23.06-1.84s.07-1.23.18-1.84.19-1.23.32-1.84c.08-.31.15-.62.25-.92l.14-.47c.07-.17.11-.3.21-.51l1.16-2.51.6,2.71c1.82,8.14,2.41,16.42,3.62,24.5A55.65,55.65,0,0,0,144,186.07a21.3,21.3,0,0,0,6.85,9.48A25.78,25.78,0,0,0,161.74,200a56.1,56.1,0,0,0,12.09.77,45.54,45.54,0,0,0,11.91-2,34.24,34.24,0,0,0,10.59-5.57,43.3,43.3,0,0,0,8.33-8.71,86,86,0,0,0,6.43-10.38c3.85-7.22,7.17-14.77,10.87-22.16,1.85-3.7,3.78-7.36,5.84-10.95s4.3-7.09,6.71-10.48a94.81,94.81,0,0,1,7.86-9.71,20.42,20.42,0,0,1,5.16-3.86,12.87,12.87,0,0,1,3.1-1.17,8.93,8.93,0,0,1,3.45-.21Z" transform="translate(-9.59 -5.24)"/><path class="cls-11" d="M212.85,183.88s-.67,1.19-2,3.24c-.65,1-1.48,2.23-2.47,3.59a52.24,52.24,0,0,1-3.56,4.4,41.55,41.55,0,0,1-4.93,4.59,37.82,37.82,0,0,1-6.33,4.09,38.41,38.41,0,0,1-7.52,2.94,50.77,50.77,0,0,1-8.17,1.54,64.41,64.41,0,0,1-8.31.31,55.37,55.37,0,0,1-8-.68,36.47,36.47,0,0,1-7.33-1.92,24.44,24.44,0,0,1-6-3.29,20.76,20.76,0,0,1-4.06-4.06,24.4,24.4,0,0,1-2.26-3.77,23.53,23.53,0,0,1-1.07-2.6l-.32-.94s.15.3.42.9.71,1.42,1.31,2.45a22.45,22.45,0,0,0,2.51,3.48,20.58,20.58,0,0,0,4.09,3.67,25.68,25.68,0,0,0,5.82,2.88,39.75,39.75,0,0,0,7.09,1.7,69.83,69.83,0,0,0,7.82.66,65,65,0,0,0,8.12-.27,44.75,44.75,0,0,0,15.32-4,40.15,40.15,0,0,0,11.24-8.13,50.9,50.9,0,0,0,3.74-4.17c1.05-1.3,1.94-2.47,2.63-3.45C212.09,185,212.85,183.88,212.85,183.88Z" transform="translate(-9.59 -5.24)"/><path class="cls-11" d="M180.57,238.79s2.49.52,6.18,1.1c1.85.3,4,.6,6.31.84,1.16.12,2.36.19,3.56.27s2.45.13,3.67.11,2.46,0,3.66-.12l1.78-.15c.59-.07,1.16-.13,1.73-.23,1.13-.18,2.22-.38,3.24-.64s2-.55,2.83-.86l1.24-.47c.38-.18.75-.34,1.09-.48.69-.31,1.25-.66,1.75-.9l1.48-.89s-.12.11-.32.33-.51.52-.93.89a16.9,16.9,0,0,1-1.58,1.24l-1,.7-1.2.68a24.61,24.61,0,0,1-6.22,2.2,31,31,0,0,1-3.68.59c-1.27.1-2.54.18-3.83.18s-2.56-.08-3.81-.17-2.48-.29-3.65-.47-2.32-.44-3.38-.68-2-.53-3-.8A37.17,37.17,0,0,1,180.57,238.79Z" transform="translate(-9.59 -5.24)"/><path class="cls-11" d="M266.48,242.77s.2.17.55.41.85.57,1.45.92c.31.14.63.33,1,.48a9.5,9.5,0,0,0,1.11.47c.38.16.8.28,1.21.43s.83.26,1.27.34.87.21,1.31.27.86.18,1.3.21l1.24.17c.39,0,.77.09,1.13.14.71.1,1.32.11,1.75.19a6.26,6.26,0,0,1,.69.13l-.64.28a7.91,7.91,0,0,1-1.72.58l-1.19.25c-.43.06-.88.08-1.37.1a10.52,10.52,0,0,1-1.47,0,11.32,11.32,0,0,1-1.51-.25,10.69,10.69,0,0,1-2.83-1.14,8.92,8.92,0,0,1-1.14-.81,6.23,6.23,0,0,1-.89-.89,5.65,5.65,0,0,1-1-1.56A3.51,3.51,0,0,1,266.48,242.77Z" transform="translate(-9.59 -5.24)"/><path class="cls-2" d="M59.49,115.11c-9.58-7.62-27.72-8.77-38.27-3.28-30.18,15.72,7.09,17.82,14.14,29,8.86,14-24.84,6.09-22.61,17.11,1.56,7.73,18.76,3.62,24.76,9.68.35,1.66,1,3.15-.07,5C51.27,164,26.29,161.18,36.07,154c7.2-5.3,23.29.3,20.34-11.54C54.35,134.2,41.55,134,33,130.63,6.24,120.21,43.19,106,59.49,115.11Z" transform="translate(-9.59 -5.24)"/><path class="cls-12" d="M197.81,40.89c.09,0,.16.11.24.16v-.16Z" transform="translate(-9.59 -5.24)"/><path class="cls-12" d="M211,56.64c-4-6.64-6.38-11.34-12.94-15.59-.89,14.26,11.72,23.13,7.43,37.83A34.61,34.61,0,0,1,194.73,96a94.85,94.85,0,0,1-18.85,12.8c-7.6,3.82-16.19,4.4-24.56,4.29,7.68,6,22.17.11,30.67-1.67,9.28-2,20.13-6.79,26.63-13.93C220.3,84.67,219.47,70.77,211,56.64Z" transform="translate(-9.59 -5.24)"/><path class="cls-11" d="M171.22,80.72c-.14-2.74-.7-7-11.62-6.46s-11.06,4.82-10.93,7.56,5.39,6.76,11.61,6.46S171.35,83.46,171.22,80.72Z" transform="translate(-9.59 -5.24)"/><path class="cls-17" d="M152.16,82.66c.83,1.38,2,2.22,2.53,1.87s.33-1.73-.5-3.1-1.25-1-1.81-.68S151.32,81.29,152.16,82.66Z" transform="translate(-9.59 -5.24)"/><path class="cls-17" d="M164.19,81c-.78,1.48-.94,2.93-.36,3.24s1.68-.65,2.46-2.13.27-1.65-.32-1.95S165,79.48,164.19,81Z" transform="translate(-9.59 -5.24)"/><path class="cls-17" d="M153.49,77.16c0,.48,2.76.71,6.09.51s6-.76,6-1.25-2.76-.71-6.1-.51S153.46,76.67,153.49,77.16Z" transform="translate(-9.59 -5.24)"/><path class="cls-11" d="M125.1,285.92s1.55.67,4.3,1.74,6.69,2.52,11.47,4.11c2.39.82,5,1.62,7.75,2.47s5.7,1.66,8.74,2.45,6.2,1.54,9.42,2.28,6.5,1.37,9.81,1.9c1.65.29,3.3.58,5,.8s3.29.47,4.93.64c3.27.38,6.5.7,9.64.89s6.17.28,9,.29c1.44.05,2.84,0,4.2-.06s2.66-.07,3.92-.15c2.52-.11,4.81-.36,6.84-.53s3.81-.49,5.27-.68c2.89-.52,4.56-.78,4.56-.78s-1.62.45-4.49,1.18c-1.44.29-3.2.67-5.22,1s-4.33.73-6.86,1c-1.27.15-2.58.28-4,.35s-2.78.21-4.23.23c-2.91.1-6,.1-9.17,0s-6.45-.33-9.77-.71c-1.66-.19-3.33-.38-5-.63s-3.35-.48-5-.77c-3.34-.57-6.65-1.27-9.91-2s-6.41-1.59-9.46-2.46-6-1.82-8.72-2.75-5.32-1.88-7.68-2.82c-4.73-1.83-8.56-3.6-11.23-4.86S125.1,285.92,125.1,285.92Z" transform="translate(-9.59 -5.24)"/><path class="cls-8" d="M124.41,105.7s15,24,16.71,59.63c0,0,2.25-28.94-11.48-55.89A23.15,23.15,0,0,1,124.41,105.7Z" transform="translate(-9.59 -5.24)"/><path class="cls-7" d="M130.5,228.34s11.07,9.17,29.19,5.81C159.69,234.15,133.58,244.16,130.5,228.34Z" transform="translate(-9.59 -5.24)"/><path class="cls-11" d="M213.08,243.79s-.77.06-1.94.1-2.74.09-4.31,0c-.78,0-1.57-.09-2.31-.14s-1.45-.22-2.06-.3a11.63,11.63,0,0,1-1.48-.41c-.37-.11-.58-.19-.58-.19l1-1.84.42.21a11.79,11.79,0,0,0,1.15.55c.54.16,1.13.42,1.83.58s1.42.38,2.18.52c1.52.3,3.05.53,4.2.67S213.08,243.79,213.08,243.79Z" transform="translate(-9.59 -5.24)"/></g></g></svg>